<?xml version="1.0" standalone="no"?>
<!DOCTYPE svg PUBLIC "-//W3C//DTD SVG 20010904//EN"
 "http://www.w3.org/TR/2001/REC-SVG-20010904/DTD/svg10.dtd">
<svg version="1.0" xmlns="http://www.w3.org/2000/svg"
 width="22.000000pt" height="22.000000pt" viewBox="0 0 22.000000 22.000000"
 preserveAspectRatio="xMidYMid meet">

<g transform="translate(0.000000,22.000000) scale(0.100000,-0.100000)"
fill="#000000" stroke="none">
<path d="M160 202 c0 -7 -9 -12 -20 -12 -12 0 -26 -12 -36 -32 l-17 -33 -15
33 c-12 25 -22 32 -41 31 -21 -1 -22 -3 -5 -6 11 -2 28 -17 38 -33 15 -27 15
-32 2 -59 -9 -16 -26 -32 -38 -34 -21 -4 -21 -4 2 -6 22 -1 32 10 63 64 36 62
67 84 67 48 0 -16 1 -16 17 0 16 16 16 18 0 34 -11 11 -17 13 -17 5z"/>
<path d="M110 73 c6 -13 20 -23 30 -23 12 0 20 -7 20 -17 0 -16 1 -16 17 0 16
16 16 18 0 34 -11 11 -17 13 -17 5 0 -18 -31 -14 -47 6 -13 15 -13 15 -3 -5z"/>
</g>
</svg>
